<svg xmlns="http://www.w3.org/2000/svg" version="1.1" xmlns:xlink="http://www.w3.org/1999/xlink" xmlns:svgjs="http://svgjs.com/svgjs" width="2000" height="1000" preserveAspectRatio="none" viewBox="0 0 2000 1000">
    <g mask="url(&quot;#SvgjsMask1111&quot;)" fill="none">
        <rect width="2000" height="1000" x="0" y="0" fill="rgba(0, 156, 255, 1)"></rect>
        <path d="M0,602.317C120.699,607.298,239.563,593.229,350.463,545.331C476.471,490.907,598.594,421.633,677.835,309.557C766.254,184.499,870.418,26.581,819.314,-117.8C766.691,-266.474,538.196,-257.667,434.886,-376.831C331.621,-495.944,374.801,-724.816,233.125,-793.95C96.195,-860.768,-58.729,-739.719,-201.884,-687.555C-335.791,-638.761,-470.166,-594.558,-576.005,-499.111C-691.629,-394.84,-821.826,-274.963,-831.7,-119.58C-841.51,34.797,-721.342,164.111,-625.884,285.832C-547.419,385.884,-445.82,459.774,-332.352,517.15C-228.184,569.824,-116.629,597.504,0,602.317" fill="#0065a6"></path>
        <path d="M2000 1484.423C2126.171 1482.848 2248.53 1618.3229999999999 2362.295 1563.742 2473.438 1510.4189999999999 2478.172 1353.1399999999999 2517.294 1236.24 2552.4210000000003 1131.277 2607.096 1023.789 2578.806 916.78 2551.314 812.79 2450.936 750.256 2370.065 679.336 2299.488 617.444 2228.254 555.816 2137.953 530.175 2048.15 504.675 1956.591 527.1 1863.619 535.529 1746.684 546.131 1618.534 518.846 1522.219 586.001 1419.1019999999999 657.898 1331.143 778.681 1334.663 904.3389999999999 1338.172 1029.574 1488.816 1095.727 1539.7069999999999 1210.209 1591.4180000000001 1326.536 1522.4769999999999 1507.709 1631.843 1572.863 1742.512 1638.7930000000001 1871.191 1486.031 2000 1484.423" fill="#59bfff"></path>
    </g>
    <defs>
        <mask id="SvgjsMask1111">
            <rect width="2000" height="1000" fill="#ffffff"></rect>
        </mask>
    </defs>
</svg>