<svg id="visual" viewBox="0 0 2900 1600" width="2900" height="1600" xmlns="http://www.w3.org/2000/svg" xmlns:xlink="http://www.w3.org/1999/xlink" version="1.1"><rect x="0" y="0" width="2900" height="1600" fill="#140021"></rect><path d="M1185 1600L953 1600L953 1477L1830 1477L1830 1354L552 1354L552 1231L1225 1231L1225 1108L1044 1108L1044 985L1969 985L1969 862L808 862L808 738L966 738L966 615L689 615L689 492L1741 492L1741 369L881 369L881 246L480 246L480 123L1171 123L1171 0L2900 0L2900 123L2900 123L2900 246L2900 246L2900 369L2900 369L2900 492L2900 492L2900 615L2900 615L2900 738L2900 738L2900 862L2900 862L2900 985L2900 985L2900 1108L2900 1108L2900 1231L2900 1231L2900 1354L2900 1354L2900 1477L2900 1477L2900 1600L2900 1600Z" fill="#9900ff"></path><path d="M1567 1600L676 1600L676 1477L1293 1477L1293 1354L940 1354L940 1231L1654 1231L1654 1108L1540 1108L1540 985L726 985L726 862L903 862L903 738L1314 738L1314 615L1338 615L1338 492L1547 492L1547 369L909 369L909 246L1766 246L1766 123L1289 123L1289 0L2900 0L2900 123L2900 123L2900 246L2900 246L2900 369L2900 369L2900 492L2900 492L2900 615L2900 615L2900 738L2900 738L2900 862L2900 862L2900 985L2900 985L2900 1108L2900 1108L2900 1231L2900 1231L2900 1354L2900 1354L2900 1477L2900 1477L2900 1600L2900 1600Z" fill="#8f00ee"></path><path d="M1122 1600L2162 1600L2162 1477L976 1477L976 1354L1327 1354L1327 1231L1514 1231L1514 1108L1856 1108L1856 985L1193 985L1193 862L1105 862L1105 738L1353 738L1353 615L1307 615L1307 492L2201 492L2201 369L1190 369L1190 246L1806 246L1806 123L1950 123L1950 0L2900 0L2900 123L2900 123L2900 246L2900 246L2900 369L2900 369L2900 492L2900 492L2900 615L2900 615L2900 738L2900 738L2900 862L2900 862L2900 985L2900 985L2900 1108L2900 1108L2900 1231L2900 1231L2900 1354L2900 1354L2900 1477L2900 1477L2900 1600L2900 1600Z" fill="#8500de"></path><path d="M1825 1600L2044 1600L2044 1477L1289 1477L1289 1354L1403 1354L1403 1231L1674 1231L1674 1108L1999 1108L1999 985L1928 985L1928 862L2294 862L2294 738L1254 738L1254 615L2051 615L2051 492L1981 492L1981 369L2344 369L2344 246L2318 246L2318 123L2183 123L2183 0L2900 0L2900 123L2900 123L2900 246L2900 246L2900 369L2900 369L2900 492L2900 492L2900 615L2900 615L2900 738L2900 738L2900 862L2900 862L2900 985L2900 985L2900 1108L2900 1108L2900 1231L2900 1231L2900 1354L2900 1354L2900 1477L2900 1477L2900 1600L2900 1600Z" fill="#7c00ce"></path><path d="M1668 1600L2107 1600L2107 1477L1726 1477L1726 1354L2480 1354L2480 1231L2415 1231L2415 1108L2032 1108L2032 985L2318 985L2318 862L2463 862L2463 738L1907 738L1907 615L2394 615L2394 492L1943 492L1943 369L1808 369L1808 246L1803 246L1803 123L1965 123L1965 0L2900 0L2900 123L2900 123L2900 246L2900 246L2900 369L2900 369L2900 492L2900 492L2900 615L2900 615L2900 738L2900 738L2900 862L2900 862L2900 985L2900 985L2900 1108L2900 1108L2900 1231L2900 1231L2900 1354L2900 1354L2900 1477L2900 1477L2900 1600L2900 1600Z" fill="#7200be"></path><path d="M2497 1600L1880 1600L1880 1477L1807 1477L1807 1354L1963 1354L1963 1231L2389 1231L2389 1108L2005 1108L2005 985L2436 985L2436 862L2400 862L2400 738L2529 738L2529 615L2072 615L2072 492L1930 492L1930 369L2531 369L2531 246L2105 246L2105 123L2451 123L2451 0L2900 0L2900 123L2900 123L2900 246L2900 246L2900 369L2900 369L2900 492L2900 492L2900 615L2900 615L2900 738L2900 738L2900 862L2900 862L2900 985L2900 985L2900 1108L2900 1108L2900 1231L2900 1231L2900 1354L2900 1354L2900 1477L2900 1477L2900 1600L2900 1600Z" fill="#6900ae"></path><path d="M2150 1600L2643 1600L2643 1477L2192 1477L2192 1354L2327 1354L2327 1231L2423 1231L2423 1108L2700 1108L2700 985L2534 985L2534 862L2366 862L2366 738L2272 738L2272 615L2343 615L2343 492L2460 492L2460 369L2437 369L2437 246L2435 246L2435 123L2311 123L2311 0L2900 0L2900 123L2900 123L2900 246L2900 246L2900 369L2900 369L2900 492L2900 492L2900 615L2900 615L2900 738L2900 738L2900 862L2900 862L2900 985L2900 985L2900 1108L2900 1108L2900 1231L2900 1231L2900 1354L2900 1354L2900 1477L2900 1477L2900 1600L2900 1600Z" fill="#5f009f"></path><path d="M2764 1600L2447 1600L2447 1477L2524 1477L2524 1354L2672 1354L2672 1231L2603 1231L2603 1108L2448 1108L2448 985L2590 985L2590 862L2606 862L2606 738L2839 738L2839 615L2558 615L2558 492L2581 492L2581 369L2601 369L2601 246L2424 246L2424 123L2392 123L2392 0L2900 0L2900 123L2900 123L2900 246L2900 246L2900 369L2900 369L2900 492L2900 492L2900 615L2900 615L2900 738L2900 738L2900 862L2900 862L2900 985L2900 985L2900 1108L2900 1108L2900 1231L2900 1231L2900 1354L2900 1354L2900 1477L2900 1477L2900 1600L2900 1600Z" fill="#560090"></path></svg>